<svg id="Layer_1" data-name="Layer 1" xmlns="http://www.w3.org/2000/svg" xmlns:xlink="http://www.w3.org/1999/xlink" viewBox="0 0 133.9 20.7"><defs><linearGradient id="linear-gradient" x1="347.92" y1="489.44" x2="346.89" y2="483.61" gradientTransform="translate(0 -110)" gradientUnits="userSpaceOnUse"><stop offset="0" stop-color="#646469"/><stop offset="0.46" stop-color="#a9a9ae"/><stop offset="0.82" stop-color="#d9d9de"/><stop offset="1" stop-color="#ebebf0"/></linearGradient><linearGradient id="linear-gradient-2" x1="323.99" y1="491.92" x2="340.56" y2="478.01" gradientTransform="translate(0 -110)" gradientUnits="userSpaceOnUse"><stop offset="0" stop-color="#e6f0f5"/><stop offset="0.06" stop-color="#cbe4ef"/><stop offset="0.2" stop-color="#96cde4"/><stop offset="0.34" stop-color="#68b9da"/><stop offset="0.47" stop-color="#42a9d1"/><stop offset="0.61" stop-color="#259ccb"/><stop offset="0.74" stop-color="#1193c7"/><stop offset="0.87" stop-color="#048ec4"/><stop offset="1" stop-color="#008cc3"/></linearGradient><linearGradient id="linear-gradient-3" x1="315.5" y1="482.94" x2="322.22" y2="489.9" gradientTransform="translate(0 -110)" gradientUnits="userSpaceOnUse"><stop offset="0" stop-color="#e6f0f5"/><stop offset="0.09" stop-color="#ddecf3"/><stop offset="0.24" stop-color="#c5e1ee"/><stop offset="0.43" stop-color="#9dd0e5"/><stop offset="0.65" stop-color="#66b8d9"/><stop offset="0.9" stop-color="#209aca"/><stop offset="1" stop-color="#008cc3"/></linearGradient><linearGradient id="linear-gradient-4" x1="346.06" y1="496.77" x2="345.03" y2="490.93" xlink:href="#linear-gradient"/><linearGradient id="linear-gradient-5" x1="324.6" y1="493.8" x2="343.45" y2="493.8" gradientTransform="translate(0 -110)" gradientUnits="userSpaceOnUse"><stop offset="0" stop-color="#e6f0f5"/><stop offset="0.1" stop-color="#c0deea"/><stop offset="0.28" stop-color="#86c2da"/><stop offset="0.45" stop-color="#56abcc"/><stop offset="0.62" stop-color="#3199c2"/><stop offset="0.77" stop-color="#168dba"/><stop offset="0.9" stop-color="#0685b6"/><stop offset="1" stop-color="#0082b4"/></linearGradient><linearGradient id="linear-gradient-6" x1="323.61" y1="490.87" x2="329.94" y2="496.77" gradientTransform="translate(0 -110)" gradientUnits="userSpaceOnUse"><stop offset="0" stop-color="#e6f0f5"/><stop offset="0.16" stop-color="#c7e1ec"/><stop offset="0.51" stop-color="#77bbd6"/><stop offset="1" stop-color="#0082b4"/></linearGradient><linearGradient id="linear-gradient-7" x1="344.26" y1="504.07" x2="343.23" y2="498.23" xlink:href="#linear-gradient"/><linearGradient id="linear-gradient-8" x1="332.05" y1="499.5" x2="340.84" y2="501.53" gradientTransform="translate(0 -110)" gradientUnits="userSpaceOnUse"><stop offset="0" stop-color="#e6f0f5"/><stop offset="0.1" stop-color="#c6e0eb"/><stop offset="0.35" stop-color="#80bdd6"/><stop offset="0.57" stop-color="#49a2c5"/><stop offset="0.76" stop-color="#218eb9"/><stop offset="0.9" stop-color="#0981b2"/><stop offset="0.99" stop-color="#007daf"/></linearGradient><linearGradient id="linear-gradient-9" x1="331.57" y1="498.46" x2="338.09" y2="504.54" gradientTransform="translate(0 -110)" gradientUnits="userSpaceOnUse"><stop offset="0" stop-color="#e6f0f5"/><stop offset="0.33" stop-color="#90c5db"/><stop offset="0.66" stop-color="#439ec3"/><stop offset="0.89" stop-color="#1386b5"/><stop offset="1" stop-color="#007daf"/></linearGradient></defs><title>Hermes Europe logo - Brandlogos.net</title><path d="M348.25,379.35l1.4-5.7h-3.1l-1.4,5.7" transform="translate(-317.05 -373.65)" style="fill:url(#linear-gradient)"/><path d="M343.85,379.35l1.4-5.7h-28.2l4.9,5.7" transform="translate(-317.05 -373.65)" style="fill:url(#linear-gradient-2)"/><path d="M322,379.35l-4.9-5.7v1.8l4.1,3.9" transform="translate(-317.05 -373.65)" style="fill:url(#linear-gradient-3)"/><path d="M346.35,386.75l1.5-5.7h-3.1l-1.5,5.7" transform="translate(-317.05 -373.65)" style="fill:url(#linear-gradient-4)"/><path d="M342,386.65l1.5-5.7h-18.8l5,5.7" transform="translate(-317.05 -373.65)" style="fill:url(#linear-gradient-5)"/><path d="M329.65,386.65l-5-5.7v1.7l4.3,4.1" transform="translate(-317.05 -373.65)" style="fill:url(#linear-gradient-6)"/><path d="M344.55,394.05l1.5-5.7H343l-1.5,5.7" transform="translate(-317.05 -373.65)" style="fill:url(#linear-gradient-7)"/><path d="M340.15,394.05l1.4-5.7h-9.3l5,5.7" transform="translate(-317.05 -373.65)" style="fill:url(#linear-gradient-8)"/><path d="M337.35,394.05l-5-5.7V390l4.3,4.1" transform="translate(-317.05 -373.65)" style="fill:url(#linear-gradient-9)"/><path d="M450.95,377.75l-.5,1.9c-.2.9-.7,1.2-1.7,1.2h-3c-1.3,0-1.8.1-2.1.4a1.59,1.59,0,0,0-.4,1.2c0,.5.2.7,1,.9l3,.9c2.1.6,2.7,1.2,2.7,2.8a10.55,10.55,0,0,1-1.5,5.3,4.32,4.32,0,0,1-3.7,1.6h-7.4c-.6,0-.8-.4-.7-.9l.9-3.7h.9c.2.8.8,1.1,2,1.1h2.9a2.53,2.53,0,0,0,1.9-.5,2.11,2.11,0,0,0,.5-1.3c0-.7-.2-.9-1.7-1.2l-3-.8c-1.6-.4-2.3-1.3-2.3-2.6a9.75,9.75,0,0,1,1.3-4.3c.8-1.4,2.1-2,4.3-2Zm-66.7,4a12.38,12.38,0,0,1-.9,4.1c-.3.6-.7.8-2.2.8h-7l-.3,1.3a3.4,3.4,0,0,0-.1,1,1.51,1.51,0,0,0,.7,1.4,4.66,4.66,0,0,0,2.5.4c2.8,0,3.4-.4,4.3-1.6h.9l-.6,2.2c-.4,1.6-.5,1.9-1.1,2.2a11.87,11.87,0,0,1-4.7.6,10.78,10.78,0,0,1-4.4-.6,4,4,0,0,1-1.9-3.8c0-3,1.5-7.6,3-9.5s3.4-2.6,6.7-2.6C382.75,377.55,384.35,378.85,384.25,381.75Zm-3.5.5c0-1.2-.7-1.7-2.3-1.7-2.1,0-2.9.8-3.6,3.4h5.6a6.75,6.75,0,0,0,.3-1.7Zm55.3-.5a12.38,12.38,0,0,1-.9,4.1c-.3.6-.8.7-2.3.7h-7l-.3,1.3a3.4,3.4,0,0,0-.1,1,1.51,1.51,0,0,0,.7,1.4,4.66,4.66,0,0,0,2.5.4c2.8,0,3.4-.4,4.3-1.6h.9l-.6,2.2c-.4,1.6-.5,1.9-1.1,2.2a11.87,11.87,0,0,1-4.7.6,10.78,10.78,0,0,1-4.4-.6,4,4,0,0,1-1.9-3.8c0-3,1.5-7.6,3-9.5s3.4-2.6,6.7-2.6c3.7,0,5.3,1.3,5.2,4.2Zm-3.5.5c0-1.2-.7-1.7-2.3-1.7-2.1,0-2.9.8-3.6,3.4h5.6a6.75,6.75,0,0,0,.3-1.7Zm-62.5-7.7a.7.7,0,0,0-.7-.9h-4.5l-.1.6c.8.2.5,1.1.4,1.5-.2.9-1.4,5.4-1.4,5.4h-6.1l1.7-6.6c.1-.5-.1-.9-.7-.9h-4.5l-.1.6c.8.2.5,1.1.4,1.5-.6,2.7-4.5,17.5-4.5,17.5a.69.69,0,0,0,.7.9h4.5l.1-.6c-.8-.2-.5-1.1-.4-1.5l1.9-7.6h6.1l-2.3,8.8a.69.69,0,0,0,.7.9h4.5l.1-.6c-.8-.2-.5-1.1-.4-1.5s4.6-17.5,4.6-17.5Zm47.2,3.1h-2.2a2.36,2.36,0,0,0-2.4,1.3l-.8,1.3c.1-1.3-.6-2.6-2.8-2.6h-2a2.58,2.58,0,0,0-2.5,1.2l-.9,1.2.4-1.4a.69.69,0,0,0-.7-.9h-4l-.2.6a.73.73,0,0,1,.6.7,1.49,1.49,0,0,1-.1.6l-3.5,13.6a.69.69,0,0,0,.7.9h4l.1-.6a.6.6,0,0,1-.5-.6,2.64,2.64,0,0,1,.1-.7s2.3-8.5,2.3-8.6c.5-2.2,1.1-2.4,2.3-2.6h.8c1.1,0,1.5.7,1.3,1.5,0,.2-2.7,10.8-2.7,10.8a.69.69,0,0,0,.7.9h4l.1-.6a.6.6,0,0,1-.5-.6,2.64,2.64,0,0,1,.1-.7l2.3-8.6c.6-2.2,1.1-2.4,2.3-2.6h.8c1.2,0,1.5.7,1.3,1.5,0,.1-2.7,10.8-2.7,10.8a.69.69,0,0,0,.7.9h4l.1-.6a.6.6,0,0,1-.5-.6,2.64,2.64,0,0,1,.1-.7s2.7-10.8,2.8-11.3c.2-1.3.2-3.5-2.9-3.5Zm-22.4.1c-1,0-1.1,0-1.6.7l-1.2,1.6.4-1.4a.69.69,0,0,0-.7-.9h-4l-.1.6a.6.6,0,0,1,.5.6,2.64,2.64,0,0,1-.1.7l-3.5,13.6a.69.69,0,0,0,.7.9h4l.1-.6a.6.6,0,0,1-.5-.6,2.64,2.64,0,0,1,.1-.7l2.3-8.7c.5-2,1-2.4,2.8-2.4h1.6c1.2,0,1.6-.3,1.8-1.2l.6-2.1-3.2-.1Z" transform="translate(-317.05 -373.65)" style="fill:#3c3c41"/></svg>